<?xml version="1.0" encoding="UTF-8"?>
<svg width="1024" height="1024" viewBox="0 0 1024 1024" fill="none" xmlns="http://www.w3.org/2000/svg">
  <!-- Foreground for Android Adaptive Icon -->
  <g transform="translate(512, 512) scale(0.8)">
    <!-- Crown -->
    <path d="M-80 -200 L-60 -160 L-40 -180 L-20 -160 L0 -180 L20 -160 L40 -180 L60 -160 L80 -200 L80 -140 L-80 -140 Z" 
          fill="#FFD700" stroke="#FFA500" stroke-width="3"/>
    
    <!-- Crown Jewels -->
    <circle cx="-40" cy="-170" r="6" fill="#FF6B6B"/>
    <circle cx="0" cy="-170" r="6" fill="#4ECDC4"/>
    <circle cx="40" cy="-170" r="6" fill="#FF6B6B"/>
    
    <!-- Hanger Hook -->
    <path d="M-10 -140 Q-10 -115 10 -115 Q10 -140 10 -140" 
          fill="none" stroke="#FFD700" stroke-width="12" stroke-linecap="round"/>
    
    <!-- Hanger Body -->
    <path d="M-140 -80 Q-140 -105 -115 -105 L115 -105 Q140 -105 140 -80 Q140 -55 115 -55 L-115 -55 Q-140 -55 -140 -80 Z" 
          fill="#FFFFFF" stroke="#E0E0E0" stroke-width="4"/>
    
    <!-- Elegant Clothing Silhouette -->
    <path d="M-100 -55 L-100 30 Q-100 55 -75 80 L-50 105 Q-25 130 0 130 Q25 130 50 105 L75 80 Q100 55 100 30 L100 -55" 
          fill="url(#clothingGradient)" stroke="#333333" stroke-width="3" opacity="0.9"/>
    
    <!-- Elegant Details -->
    <path d="M-75 -30 L75 -30" stroke="#FFD700" stroke-width="3" opacity="0.7"/>
    <path d="M-50 -5 L50 -5" stroke="#FFD700" stroke-width="2" opacity="0.5"/>
    <path d="M-35 20 L35 20" stroke="#FFD700" stroke-width="1.5" opacity="0.3"/>
    
    <!-- Brand Initial "E" -->
    <text x="0" y="180" font-family="serif" font-size="140" font-weight="bold" 
          text-anchor="middle" fill="#FFD700" stroke="#FFA500" stroke-width="3">E</text>
  </g>
  
  <!-- Gradient Definitions -->
  <defs>
    <linearGradient id="clothingGradient" x1="0%" y1="0%" x2="0%" y2="100%">
      <stop offset="0%" style="stop-color:#333333;stop-opacity:0.8" />
      <stop offset="50%" style="stop-color:#666666;stop-opacity:0.6" />
      <stop offset="100%" style="stop-color:#333333;stop-opacity:0.8" />
    </linearGradient>
  </defs>
</svg>