<?xml version="1.0" encoding="UTF-8"?>
<svg width="32" height="32" viewBox="0 0 32 32" fill="none" xmlns="http://www.w3.org/2000/svg">
  <!-- Background -->
  <rect width="32" height="32" rx="6" fill="url(#faviconGradient)"/>
  
  <!-- Simplified Icon for Favicon -->
  <g transform="translate(16, 16) scale(0.6)">
    <!-- Crown -->
    <path d="M-8 -12 L-6 -10 L-4 -11 L-2 -10 L0 -11 L2 -10 L4 -11 L6 -10 L8 -12 L8 -8 L-8 -8 Z" 
          fill="#FFD700"/>
    
    <!-- Hanger -->
    <path d="M-10 -4 Q-10 -6 -8 -6 L8 -6 Q10 -6 10 -4 Q10 -2 8 -2 L-8 -2 Q-10 -2 -10 -4 Z" 
          fill="#FFFFFF"/>
    
    <!-- Clothing -->
    <path d="M-6 -2 L-6 4 Q-6 6 -4 8 L-2 10 Q0 12 2 10 L4 8 Q6 6 6 4 L6 -2" 
          fill="#666666" opacity="0.8"/>
    
    <!-- Brand Initial -->
    <text x="0" y="18" font-family="serif" font-size="12" font-weight="bold" 
          text-anchor="middle" fill="#FFD700">E</text>
  </g>
  
  <!-- Gradient Definition -->
  <defs>
    <linearGradient id="faviconGradient" x1="0%" y1="0%" x2="100%" y2="100%">
      <stop offset="0%" style="stop-color:#000000;stop-opacity:1" />
      <stop offset="100%" style="stop-color:#1a1a1a;stop-opacity:1" />
    </linearGradient>
  </defs>
</svg>